<?xml version="1.0" encoding="UTF-8"?>
<svg version="1.1" xmlns="http://www.w3.org/2000/svg" width="1024" height="1024">
<path d="M0 0 C337.92 0 675.84 0 1024 0 C1024 337.92 1024 675.84 1024 1024 C686.08 1024 348.16 1024 0 1024 C0 686.08 0 348.16 0 0 Z " fill="#590797" transform="translate(0,0)"/>
<path d="M0 0 C18.81 0 37.62 0 57 0 C69.58312135 28.59800308 69.58312135 28.59800308 74.92254639 40.97912598 C75.92743219 43.3090701 76.93355597 45.63847669 77.93994141 47.96777344 C80.2504909 53.31582999 82.55981542 58.66441519 84.86914062 64.01300049 C92.61671095 81.95501341 100.44067095 99.86198919 108.30981445 117.75097656 C111.89647035 125.90791527 115.47247657 134.06897613 119.00390625 142.25 C119.31113617 142.96144165 119.61836609 143.6728833 119.93490601 144.40588379 C121.36199748 147.71237212 122.78582925 151.02021614 124.20507812 154.33007812 C124.69556641 155.46896484 125.18605469 156.60785156 125.69140625 157.78125 C126.11623291 158.77189453 126.54105957 159.76253906 126.97875977 160.78320312 C127.81098018 162.92643597 127.81098018 162.92643597 129 164 C129.43755615 163.01418945 129.8751123 162.02837891 130.32592773 161.01269531 C138.84857364 141.81348988 147.37431425 122.61647027 156.046875 103.484375 C160.29201042 94.10348888 164.45394323 84.68885276 168.56652832 75.24914551 C168.9976593 74.25956848 168.9976593 74.25956848 169.4375 73.25 C169.72588745 72.58802612 170.0142749 71.92605225 170.31140137 71.24401855 C176.32688801 57.4469017 182.49531528 43.7200377 188.69506836 30.00488281 C189.24457153 28.78819916 189.24457153 28.78819916 189.80517578 27.54693604 C190.47589927 26.06227285 191.14741568 24.57796737 191.82006836 23.09417725 C195.2849315 15.42599759 198.62629945 7.71131553 202 0 C220.48 0 238.96 0 258 0 C257.07527737 4.62361316 255.63506205 8.44555486 253.71875 12.6953125 C253.38963623 13.43534515 253.06052246 14.17537781 252.72143555 14.93783569 C251.65291271 17.33595945 250.57672768 19.73055024 249.5 22.125 C248.75695875 23.78701876 248.01412092 25.44912849 247.27148438 27.11132812 C243.44921085 35.64866439 239.56898112 44.1503581 235.49829102 52.57250977 C231.62530668 60.65218673 228.05445579 68.86613803 224.4375 77.0625 C219.08876193 89.17829639 213.61120288 101.22038863 207.9375 113.1875 C202.76173086 124.10554038 197.66494181 135.05253811 192.6875 146.0625 C186.14698312 160.52626418 179.48879461 174.93360007 172.80371094 189.33105469 C172.01102819 191.03839311 171.21838431 192.74574958 170.42578125 194.453125 C169.85136795 195.69047394 169.85136795 195.69047394 169.26535034 196.95281982 C165.52145999 205.02254088 161.81111127 213.10735876 158.12011719 221.20141602 C157.72856445 222.05920654 157.33701172 222.91699707 156.93359375 223.80078125 C156.4394397 224.88613159 156.4394397 224.88613159 155.93530273 225.9934082 C154.99382546 228.01324681 153.99660699 230.00678602 153 232 C135.84 232 118.68 232 101 232 C88.01572928 204.25466362 88.01572928 204.25466362 82.57397461 191.39038086 C79.16841412 183.35079063 75.65453494 175.36066992 72.125 167.375 C71.81228149 166.66708313 71.49956299 165.95916626 71.17736816 165.22979736 C68.01293115 158.06672841 64.84371465 150.90577587 61.67382812 143.74511719 C59.24002055 138.24712724 56.80701864 132.74878152 54.375 127.25 C53.76390884 125.86832642 53.76390884 125.86832642 53.14047241 124.45874023 C47.68218522 112.1134821 42.26903671 99.75056163 36.91918945 87.35791016 C32.72496647 77.64990372 28.48366437 67.96299137 24.22946167 58.28112793 C23.07302141 55.64894785 21.91740031 53.01640949 20.76196289 50.38378906 C17.4421111 42.82166072 14.11877182 35.26119434 10.77275085 27.71060181 C9.44717216 24.71774056 8.12559711 21.72312139 6.80465698 18.72821045 C6.18959703 17.33672892 5.57254119 15.94612775 4.95339966 14.55645752 C4.1072197 12.6569669 3.26771368 10.75466129 2.4296875 8.8515625 C1.95772949 7.78760254 1.48577148 6.72364258 0.99951172 5.62744141 C0 3 0 3 0 0 Z " fill="#FCFCFD" transform="translate(566,400)"/>
<path d="M0 0 C62.37 0 124.74 0 189 0 C187.08326116 5.75021653 184.64414286 10.35884627 181.46270943 15.42482758 C178.71224479 19.87371457 176.3748366 24.30310266 174.30075073 29.10754395 C167.03384768 45.00888751 167.03384768 45.00888751 160.28922272 48.33804321 C152.53067992 50.36666068 144.62688541 49.75777404 136.6953125 49.34375 C134.15957797 49.29891744 131.62363378 49.26478696 129.08761597 49.24084473 C123.12626631 49.15899325 117.17454216 48.97055643 111.21811759 48.72845697 C104.42864695 48.45859394 97.6386125 48.32786908 90.84510064 48.20776653 C76.890803 47.95800246 62.94599412 47.53692434 49 47 C49.08186159 50.64668507 49.19461028 54.29181587 49.3125 57.9375 C49.34633789 59.46987305 49.34633789 59.46987305 49.38085938 61.03320312 C49.68986108 69.82570628 51.08535422 78.15146278 57 85 C63.31976163 89.34182097 69.95333093 92.23389634 77.6947937 92.2784729 C79.36054695 92.29521812 79.36054695 92.29521812 81.05995178 92.31230164 C82.26332687 92.31446182 83.46670197 92.31662201 84.70654297 92.31884766 C85.98513687 92.32889328 87.26373077 92.3389389 88.58106995 92.34928894 C92.07439226 92.37651466 95.56767441 92.39171619 99.06107473 92.40471697 C102.71663597 92.42038015 106.37211559 92.44716016 110.02761841 92.4727478 C116.94412623 92.51947929 123.8606495 92.55625058 130.7772342 92.58942068 C138.65393661 92.62768193 146.53055694 92.67708157 154.40719008 92.72740483 C170.60473998 92.83064094 186.80232416 92.91845806 203 93 C203 108.51 203 124.02 203 140 C185.00532162 140.06791759 167.01075391 140.12309799 149.01598263 140.15543652 C140.65928979 140.17085597 132.3026827 140.19185043 123.94604492 140.22631836 C116.65600969 140.25637243 109.36603661 140.2756107 102.07594115 140.28226548 C98.22167577 140.28615085 94.36758806 140.29517714 90.51338005 140.31719017 C86.87312743 140.33780943 83.23312279 140.34378349 79.59281731 140.33932304 C77.64547405 140.34052021 75.69815674 140.35652741 73.75088501 140.3732605 C52.21919827 140.29917706 34.17334273 133.59069135 18.3125 118.8125 C-11.55230963 87.61205488 0 38.08722108 0 0 Z " fill="#FCFCFD" transform="translate(192,492)"/>
<path d="M0 0 C17.49 0 34.98 0 53 0 C53 61.38 53 122.76 53 186 C89.3 186 125.6 186 163 186 C186 231 186 231 186 233 C124.62 233 63.24 233 0 233 C0 156.11 0 79.22 0 0 Z " fill="#FBFBFC" transform="translate(434,399)"/>
<path d="M0 0 C1.29853912 -0.00014603 2.59707825 -0.00029205 3.93496704 -0.0004425 C7.46945944 -0.00072758 11.0039174 0.00512206 14.53840184 0.01213145 C18.24194362 0.01841347 21.94548631 0.01897261 25.64903259 0.02015686 C32.65047716 0.02325595 39.65190597 0.03145004 46.65334362 0.04150635 C54.6292146 0.05271182 62.60508635 0.05818908 70.58096325 0.06320179 C86.97708186 0.07363394 103.37317879 0.0919616 119.76928711 0.11352539 C119.76928711 15.62352539 119.76928711 31.13352539 119.76928711 47.11352539 C113.97829468 47.13539917 113.97829468 47.13539917 108.0703125 47.15771484 C95.30581343 47.20808196 82.54144041 47.27453168 69.77706242 47.3492403 C62.03905159 47.39413842 54.30108617 47.43356675 46.56298828 47.45996094 C39.81568409 47.48298964 33.06852432 47.51644172 26.32133478 47.56222695 C22.75124555 47.58609381 19.18129876 47.60486524 15.61113167 47.6111393 C11.61815274 47.61835222 7.62566731 47.64884351 3.6328125 47.68115234 C1.87198082 47.67899971 1.87198082 47.67899971 0.07557678 47.67680359 C-9.06979331 47.78125451 -16.99563694 49.16468516 -24.23071289 55.11352539 C-31.14994306 62.86239946 -32.17155143 68.52191083 -33.23071289 79.11352539 C-49.73071289 79.11352539 -66.23071289 79.11352539 -83.23071289 79.11352539 C-83.23071289 55.45737753 -77.30309108 36.3683984 -60.51977539 19.36743164 C-43.42343399 3.98072438 -22.36930804 -0.06639515 0 0 Z " fill="#FBFBFD" transform="translate(275.230712890625,398.886474609375)"/>
<path d="M0 0 C1.30577649 3.91732948 0.393085 4.93792397 -1.33203125 8.6328125 C-1.87504883 9.81278809 -2.41806641 10.99276367 -2.97753906 12.20849609 C-3.58916243 13.51401158 -4.20081698 14.81951246 -4.8125 16.125 C-6.10027305 18.90906451 -7.38052267 21.69656154 -8.66015625 24.484375 C-9.00235199 25.22783173 -9.34454773 25.97128845 -9.69711304 26.73727417 C-12.49573534 32.8400109 -15.19656799 38.98261952 -17.87109375 45.140625 C-18.27725418 46.07441986 -18.68341461 47.00821472 -19.10188293 47.9703064 C-20.7234935 51.70096205 -22.34379501 55.4321231 -23.95327759 59.16802979 C-25.08300736 61.78898414 -26.22050255 64.40644585 -27.359375 67.0234375 C-27.6983934 67.81679504 -28.0374118 68.61015259 -28.38670349 69.42755127 C-30.77290723 74.88645362 -30.77290723 74.88645362 -33 76 C-34.88217923 71.93049519 -36.7515196 67.85541536 -38.60913086 63.7746582 C-39.24299151 62.38698223 -39.88034635 61.00089684 -40.52124023 59.61645508 C-41.44134867 57.62728185 -42.34877924 55.63274503 -43.25390625 53.63671875 C-43.80377197 52.43748779 -44.3536377 51.23825684 -44.92016602 50.00268555 C-46 47 -46 47 -45 44 C-43.18497611 47.93634143 -41.37341424 51.87426644 -39.5625 55.8125 C-39.04623047 56.93205078 -38.52996094 58.05160156 -37.99804688 59.20507812 C-37.25844727 60.81479492 -37.25844727 60.81479492 -36.50390625 62.45703125 C-36.04830322 63.44678955 -35.5927002 64.43654785 -35.12329102 65.45629883 C-34 68 -34 68 -33 71 C-32.34 71.33 -31.68 71.66 -31 72 C-30.89171875 71.13503906 -30.7834375 70.27007813 -30.671875 69.37890625 C-29.96536589 65.82582265 -28.84476478 63.18624113 -27.25 59.9375 C-23.58717895 52.33360628 -20.12692754 44.64458928 -16.6875 36.9375 C-15.56316585 34.42157695 -14.4380223 31.90601672 -13.3125 29.390625 C-13.0349437 28.77024353 -12.75738739 28.14986206 -12.47142029 27.51068115 C-8.35680086 18.3212165 -4.18043464 9.15966931 0 0 Z " fill="#34126A" transform="translate(727,489)"/>
<path d="M0 0 C0.66 0 1.32 0 2 0 C-2.99664339 16.10029537 -10.54726793 31.442517 -19 46 C-19.33 45.34 -19.66 44.68 -20 44 C-19.13891602 41.671875 -19.13891602 41.671875 -17.75390625 38.75 C-17.24956055 37.67411621 -16.74521484 36.59823242 -16.22558594 35.48974609 C-15.67676758 34.33812988 -15.12794922 33.18651367 -14.5625 32 C-13.45339677 29.63850446 -12.34532917 27.27652225 -11.23828125 24.9140625 C-10.41384521 23.16077637 -10.41384521 23.16077637 -9.57275391 21.37207031 C-7.40823164 16.73121629 -5.31707394 12.05991588 -3.25 7.375 C-2.74835327 6.23998047 -2.74835327 6.23998047 -2.23657227 5.08203125 C-1.48934505 3.38877139 -0.74436317 1.69452086 0 0 Z " fill="#441F6E" transform="translate(759,543)"/>
<path d="M0 0 C0.33 0.66 0.66 1.32 1 2 C0.16059029 4.24589069 -0.739244 6.36895168 -1.74609375 8.5390625 C-2.03605728 9.17991791 -2.32602081 9.82077332 -2.62477112 10.48104858 C-3.55500896 12.53246248 -4.49609254 14.57869135 -5.4375 16.625 C-6.06907856 18.01269374 -6.69994728 19.40071078 -7.33007812 20.7890625 C-8.87849883 24.19651814 -10.43666616 27.59936225 -12 31 C-13.49567009 26.51298973 -11.79256393 23.24904043 -10 19 C-8.66666667 17 -7.33333333 15 -6 13 C-4.60767196 9.8641996 -3.3175284 6.70015662 -2.05078125 3.51171875 C-1 1 -1 1 0 0 Z " fill="#301069" transform="translate(758,420)"/>
<path d="M0 0 C0.66 0 1.32 0 2 0 C-0.33937611 7.66795502 -3.54768806 14.77137274 -7 22 C-8.18960605 18.58957132 -7.85398723 16.91628018 -6.34765625 13.671875 C-5.98349609 12.87265625 -5.61933594 12.0734375 -5.24414062 11.25 C-4.85419922 10.425 -4.46425781 9.6 -4.0625 8.75 C-3.67642578 7.90953125 -3.29035156 7.0690625 -2.89257812 6.203125 C-1.93865013 4.13039258 -0.97423909 2.06324373 0 0 Z " fill="#391966" transform="translate(793,469)"/>
<path d="M0 0 C0.66 0.33 1.32 0.66 2 1 C1.07204012 3.44152551 0.13319062 5.87784968 -0.8125 8.3125 C-1.07353516 9.00279297 -1.33457031 9.69308594 -1.60351562 10.40429688 C-4.0677304 16.70173464 -4.0677304 16.70173464 -7 19 C-6.4253379 14.21357393 -5.01754357 10.46211213 -2.9375 6.125 C-2.38964844 4.97257812 -1.84179688 3.82015625 -1.27734375 2.6328125 C-0.85582031 1.76398438 -0.43429687 0.89515625 0 0 Z " fill="#391A67" transform="translate(811,430)"/>
<path d="M0 0 C0.98464547 2.6078186 1.1236295 3.68962214 0.07421875 6.32421875 C-0.38339844 7.10410156 -0.84101562 7.88398438 -1.3125 8.6875 C-1.98732422 9.86892578 -1.98732422 9.86892578 -2.67578125 11.07421875 C-4 13 -4 13 -6 14 C-4.7023817 8.70139194 -2.84984298 4.65474354 0 0 Z " fill="#3A2067" transform="translate(824,402)"/>
<path d="M0 0 C1 2 1 2 0.29296875 4.34765625 C-0.07183594 5.24355469 -0.43664062 6.13945312 -0.8125 7.0625 C-1.16957031 7.96097656 -1.52664063 8.85945312 -1.89453125 9.78515625 C-3 12 -3 12 -5 13 C-4.48474397 7.71862571 -2.74522883 4.42778844 0 0 Z " fill="#341363" transform="translate(778,504)"/>
<path d="M0 0 C0.66 0 1.32 0 2 0 C0.14285714 8.71428571 0.14285714 8.71428571 -3 11 C-2.44894091 7.0507432 -1.61064629 3.65079826 0 0 Z " fill="#3A1868" transform="translate(801,451)"/>
<path d="M0 0 C0.66 0.33 1.32 0.66 2 1 C1.67 4.63 1.34 8.26 1 12 C-1.00531963 7.98936074 -1.28227139 6.32816129 -1 2 C-0.67 1.34 -0.34 0.68 0 0 Z " fill="#6C22B0" transform="translate(192,455)"/>
<path d="M0 0 C1 3 1 3 -0.4375 6.1875 C-1.2109375 7.5796875 -1.2109375 7.5796875 -2 9 C-2.6875 7.3125 -2.6875 7.3125 -3 5 C-1.5625 2.25 -1.5625 2.25 0 0 Z " fill="#371168" transform="translate(753,558)"/>
</svg>
